<mxfile host="app.diagrams.net" modified="2024-04-10T16:18:02.268Z" agent="Mozilla/5.0 (X11; Ubuntu; Linux x86_64; rv:123.0) Gecko/20100101 Firefox/123.0" etag="JFphqIkuC9BNfMF3I9hi" version="24.2.3" type="device">
  <diagram id="C5RBs43oDa-KdzZeNtuy" name="Page-1">
    <mxGraphModel dx="542" dy="313" grid="1" gridSize="10" guides="1" tooltips="1" connect="1" arrows="1" fold="1" page="1" pageScale="1" pageWidth="827" pageHeight="1169" math="0" shadow="0">
      <root>
        <mxCell id="WIyWlLk6GJQsqaUBKTNV-0" />
        <mxCell id="WIyWlLk6GJQsqaUBKTNV-1" parent="WIyWlLk6GJQsqaUBKTNV-0" />
        <mxCell id="zkfFHV4jXpPFQw0GAbJ--0" value="Class           Vehicle" style="swimlane;fontStyle=2;align=left;verticalAlign=top;childLayout=stackLayout;horizontal=1;startSize=26;horizontalStack=0;resizeParent=1;resizeLast=0;collapsible=1;marginBottom=0;rounded=0;shadow=0;strokeWidth=1;" parent="WIyWlLk6GJQsqaUBKTNV-1" vertex="1">
          <mxGeometry x="220" y="86" width="160" height="140" as="geometry">
            <mxRectangle x="220" y="86" width="160" height="26" as="alternateBounds" />
          </mxGeometry>
        </mxCell>
        <mxCell id="S7Fu3PUkn-i9hFG1DwN8-4" value="" style="group" vertex="1" connectable="0" parent="zkfFHV4jXpPFQw0GAbJ--0">
          <mxGeometry y="26" width="160" height="114" as="geometry" />
        </mxCell>
        <mxCell id="S7Fu3PUkn-i9hFG1DwN8-3" value="&lt;br&gt;&lt;font style=&quot;font-size: 9px;&quot;&gt;-Engine&lt;/font&gt;" style="rounded=0;whiteSpace=wrap;html=1;" vertex="1" parent="S7Fu3PUkn-i9hFG1DwN8-4">
          <mxGeometry x="100" width="60" height="114" as="geometry" />
        </mxCell>
        <mxCell id="S7Fu3PUkn-i9hFG1DwN8-1" value="&lt;div align=&quot;left&quot;&gt;-&lt;font style=&quot;font-size: 6px;&quot;&gt;Know its type, chassis, model, year, gas consumption, and engine &lt;/font&gt;&lt;font style=&quot;font-size: 6px;&quot;&gt;details.&lt;/font&gt;&lt;/div&gt;&lt;div align=&quot;left&quot;&gt;&lt;font style=&quot;font-size: 6px;&quot;&gt;-Calculate gas consumption.&lt;/font&gt;&lt;/div&gt;&lt;div align=&quot;left&quot;&gt;&lt;font style=&quot;font-size: 6px;&quot;&gt;-Provide information about vehicle.&lt;br&gt;&lt;/font&gt;&lt;/div&gt;&lt;br&gt;&lt;style type=&quot;text/css&quot;&gt;p { line-height: 115%; margin-bottom: 0.25cm; background: transparent }&lt;/style&gt;" style="rounded=0;whiteSpace=wrap;html=1;" vertex="1" parent="S7Fu3PUkn-i9hFG1DwN8-4">
          <mxGeometry width="100" height="114" as="geometry" />
        </mxCell>
        <mxCell id="S7Fu3PUkn-i9hFG1DwN8-9" value="Class           Engine" style="swimlane;fontStyle=2;align=left;verticalAlign=top;childLayout=stackLayout;horizontal=1;startSize=26;horizontalStack=0;resizeParent=1;resizeLast=0;collapsible=1;marginBottom=0;rounded=0;shadow=0;strokeWidth=1;" vertex="1" parent="WIyWlLk6GJQsqaUBKTNV-1">
          <mxGeometry x="400" y="86" width="160" height="140" as="geometry">
            <mxRectangle x="220" y="86" width="160" height="26" as="alternateBounds" />
          </mxGeometry>
        </mxCell>
        <mxCell id="S7Fu3PUkn-i9hFG1DwN8-10" value="" style="group" vertex="1" connectable="0" parent="S7Fu3PUkn-i9hFG1DwN8-9">
          <mxGeometry y="26" width="160" height="114" as="geometry" />
        </mxCell>
        <mxCell id="S7Fu3PUkn-i9hFG1DwN8-11" value="&lt;font style=&quot;font-size: 8px;&quot;&gt;-None&lt;/font&gt;" style="rounded=0;whiteSpace=wrap;html=1;" vertex="1" parent="S7Fu3PUkn-i9hFG1DwN8-10">
          <mxGeometry x="100" width="60" height="114" as="geometry" />
        </mxCell>
        <mxCell id="S7Fu3PUkn-i9hFG1DwN8-12" value="&lt;div align=&quot;left&quot;&gt;-&lt;font style=&quot;font-size: 6px;&quot;&gt;Know engine potency, type and weight.&lt;br&gt;&lt;/font&gt;&lt;/div&gt;" style="rounded=0;whiteSpace=wrap;html=1;" vertex="1" parent="S7Fu3PUkn-i9hFG1DwN8-10">
          <mxGeometry width="100" height="114" as="geometry" />
        </mxCell>
        <mxCell id="S7Fu3PUkn-i9hFG1DwN8-17" value="Class        Yatch(Subclass of Vehicle)" style="swimlane;fontStyle=2;align=left;verticalAlign=top;childLayout=stackLayout;horizontal=1;startSize=26;horizontalStack=0;resizeParent=1;resizeLast=0;collapsible=1;marginBottom=0;rounded=0;shadow=0;strokeWidth=1;fontSize=8;" vertex="1" parent="WIyWlLk6GJQsqaUBKTNV-1">
          <mxGeometry x="400" y="390" width="160" height="140" as="geometry">
            <mxRectangle x="220" y="86" width="160" height="26" as="alternateBounds" />
          </mxGeometry>
        </mxCell>
        <mxCell id="S7Fu3PUkn-i9hFG1DwN8-18" value="" style="group" vertex="1" connectable="0" parent="S7Fu3PUkn-i9hFG1DwN8-17">
          <mxGeometry y="26" width="160" height="114" as="geometry" />
        </mxCell>
        <mxCell id="S7Fu3PUkn-i9hFG1DwN8-19" value="&lt;font style=&quot;font-size: 8px;&quot;&gt;-None&lt;/font&gt;" style="rounded=0;whiteSpace=wrap;html=1;" vertex="1" parent="S7Fu3PUkn-i9hFG1DwN8-18">
          <mxGeometry x="100" width="60" height="114" as="geometry" />
        </mxCell>
        <mxCell id="S7Fu3PUkn-i9hFG1DwN8-20" value="&lt;div align=&quot;left&quot;&gt;&lt;font style=&quot;font-size: 8px;&quot;&gt;-&lt;font&gt;Know length.&lt;br&gt;&lt;/font&gt;&lt;/font&gt;&lt;/div&gt;" style="rounded=0;whiteSpace=wrap;html=1;" vertex="1" parent="S7Fu3PUkn-i9hFG1DwN8-18">
          <mxGeometry width="100" height="114" as="geometry" />
        </mxCell>
        <mxCell id="S7Fu3PUkn-i9hFG1DwN8-21" value="Class        Truck(Subclass of Vehicle)" style="swimlane;fontStyle=2;align=left;verticalAlign=top;childLayout=stackLayout;horizontal=1;startSize=26;horizontalStack=0;resizeParent=1;resizeLast=0;collapsible=1;marginBottom=0;rounded=0;shadow=0;strokeWidth=1;fontSize=8;" vertex="1" parent="WIyWlLk6GJQsqaUBKTNV-1">
          <mxGeometry x="220" y="390" width="160" height="140" as="geometry">
            <mxRectangle x="220" y="86" width="160" height="26" as="alternateBounds" />
          </mxGeometry>
        </mxCell>
        <mxCell id="S7Fu3PUkn-i9hFG1DwN8-22" value="" style="group" vertex="1" connectable="0" parent="S7Fu3PUkn-i9hFG1DwN8-21">
          <mxGeometry y="26" width="160" height="114" as="geometry" />
        </mxCell>
        <mxCell id="S7Fu3PUkn-i9hFG1DwN8-23" value="&lt;font style=&quot;font-size: 8px;&quot;&gt;-None&lt;/font&gt;" style="rounded=0;whiteSpace=wrap;html=1;" vertex="1" parent="S7Fu3PUkn-i9hFG1DwN8-22">
          <mxGeometry x="100" width="60" height="114" as="geometry" />
        </mxCell>
        <mxCell id="S7Fu3PUkn-i9hFG1DwN8-24" value="&lt;div align=&quot;left&quot;&gt;&lt;font style=&quot;font-size: 8px;&quot;&gt;-&lt;font&gt;Know payload capacity.&lt;br&gt;&lt;/font&gt;&lt;/font&gt;&lt;/div&gt;" style="rounded=0;whiteSpace=wrap;html=1;" vertex="1" parent="S7Fu3PUkn-i9hFG1DwN8-22">
          <mxGeometry width="100" height="114" as="geometry" />
        </mxCell>
        <mxCell id="S7Fu3PUkn-i9hFG1DwN8-25" value="Class        Motorcycle(Subclass of Vehicle)" style="swimlane;fontStyle=2;align=left;verticalAlign=top;childLayout=stackLayout;horizontal=1;startSize=26;horizontalStack=0;resizeParent=1;resizeLast=0;collapsible=1;marginBottom=0;rounded=0;shadow=0;strokeWidth=1;fontSize=8;" vertex="1" parent="WIyWlLk6GJQsqaUBKTNV-1">
          <mxGeometry x="400" y="240" width="160" height="140" as="geometry">
            <mxRectangle x="220" y="86" width="160" height="26" as="alternateBounds" />
          </mxGeometry>
        </mxCell>
        <mxCell id="S7Fu3PUkn-i9hFG1DwN8-26" value="" style="group" vertex="1" connectable="0" parent="S7Fu3PUkn-i9hFG1DwN8-25">
          <mxGeometry y="26" width="160" height="114" as="geometry" />
        </mxCell>
        <mxCell id="S7Fu3PUkn-i9hFG1DwN8-27" value="&lt;font style=&quot;font-size: 8px;&quot;&gt;-None&lt;/font&gt;" style="rounded=0;whiteSpace=wrap;html=1;" vertex="1" parent="S7Fu3PUkn-i9hFG1DwN8-26">
          <mxGeometry x="100" width="60" height="114" as="geometry" />
        </mxCell>
        <mxCell id="S7Fu3PUkn-i9hFG1DwN8-28" value="&lt;div align=&quot;left&quot;&gt;&lt;font style=&quot;font-size: 8px;&quot;&gt;-&lt;font&gt;Know numbers of wheels.&lt;br&gt;&lt;/font&gt;&lt;/font&gt;&lt;/div&gt;" style="rounded=0;whiteSpace=wrap;html=1;" vertex="1" parent="S7Fu3PUkn-i9hFG1DwN8-26">
          <mxGeometry width="100" height="114" as="geometry" />
        </mxCell>
        <mxCell id="S7Fu3PUkn-i9hFG1DwN8-29" value="Class          Car(Subclass of Vehicle)" style="swimlane;fontStyle=2;align=left;verticalAlign=top;childLayout=stackLayout;horizontal=1;startSize=26;horizontalStack=0;resizeParent=1;resizeLast=0;collapsible=1;marginBottom=0;rounded=0;shadow=0;strokeWidth=1;fontSize=8;" vertex="1" parent="WIyWlLk6GJQsqaUBKTNV-1">
          <mxGeometry x="220" y="240" width="160" height="140" as="geometry">
            <mxRectangle x="220" y="86" width="160" height="26" as="alternateBounds" />
          </mxGeometry>
        </mxCell>
        <mxCell id="S7Fu3PUkn-i9hFG1DwN8-30" value="" style="group" vertex="1" connectable="0" parent="S7Fu3PUkn-i9hFG1DwN8-29">
          <mxGeometry y="26" width="160" height="114" as="geometry" />
        </mxCell>
        <mxCell id="S7Fu3PUkn-i9hFG1DwN8-31" value="&lt;font style=&quot;font-size: 8px;&quot;&gt;-None&lt;/font&gt;" style="rounded=0;whiteSpace=wrap;html=1;" vertex="1" parent="S7Fu3PUkn-i9hFG1DwN8-30">
          <mxGeometry x="100" width="60" height="114" as="geometry" />
        </mxCell>
        <mxCell id="S7Fu3PUkn-i9hFG1DwN8-32" value="&lt;div align=&quot;left&quot;&gt;&lt;font style=&quot;font-size: 8px;&quot;&gt;-&lt;font&gt;Know number of doors.&lt;br&gt;&lt;/font&gt;&lt;/font&gt;&lt;/div&gt;" style="rounded=0;whiteSpace=wrap;html=1;" vertex="1" parent="S7Fu3PUkn-i9hFG1DwN8-30">
          <mxGeometry width="100" height="114" as="geometry" />
        </mxCell>
      </root>
    </mxGraphModel>
  </diagram>
</mxfile>
